<svg version="1.1" id="Layer_1" xmlns="http://www.w3.org/2000/svg" xmlns:xlink="http://www.w3.org/1999/xlink" x="0px" y="0px"
	 width="100%" viewBox="0 0 280 280" enable-background="new 0 0 280 280" xml:space="preserve">
<path fill="#000000" opacity="1.000000" stroke="none" 
	d="
M189.000000,281.000000 
	C126.000008,281.000000 63.500015,281.000000 1.000017,281.000000 
	C1.000011,187.666687 1.000011,94.333374 1.000006,1.000042 
	C94.333305,1.000028 187.666611,1.000028 280.999939,1.000014 
	C280.999939,94.333290 280.999939,187.666580 280.999969,280.999939 
	C250.500000,281.000000 220.000000,281.000000 189.000000,281.000000 
M68.927597,195.554428 
	C59.928905,198.873016 50.930214,202.191620 41.271240,205.753723 
	C41.271240,216.449829 41.271240,228.515640 41.271240,240.575653 
	C92.169167,241.579102 137.236023,193.873856 136.475510,145.308548 
	C124.081116,145.308548 111.686111,145.308548 99.321838,145.308548 
	C98.136055,158.320007 95.480492,168.492630 86.168701,179.216797 
	C81.163826,184.980789 75.078644,189.806732 68.927597,195.554428 
M239.999252,224.497833 
	C239.999252,217.725006 239.999252,210.952179 239.999252,204.452759 
	C224.224472,202.027466 211.043625,196.262558 199.962692,185.224518 
	C188.699341,174.004730 183.991486,160.151703 181.659531,145.320969 
	C169.078140,145.320969 156.988739,145.320969 144.911926,145.320969 
	C144.099640,196.516602 192.929443,242.252670 239.999252,240.373276 
	C239.999252,235.428513 239.999252,230.462204 239.999252,224.497833 
M52.594517,80.986473 
	C56.455860,82.323029 60.520893,83.253212 64.142349,85.068367 
	C77.870117,91.949036 88.156128,102.352516 93.878784,116.681313 
	C96.514069,123.279732 98.006668,130.334518 99.999229,137.120483 
	C112.128769,137.120483 124.379066,137.120483 136.626114,137.120483 
	C136.095993,85.019264 87.567612,39.849781 41.346779,42.619667 
	C41.346779,54.686481 41.346779,66.751938 41.346779,78.279884 
	C45.118591,79.232407 48.435104,80.069946 52.594517,80.986473 
M222.079285,82.428459 
	C227.944199,81.055305 233.809097,79.682152 239.606689,78.324760 
	C239.606689,66.277817 239.606689,54.219707 239.606689,42.176056 
	C183.790924,41.551395 141.627350,96.574486 145.403244,137.126709 
	C157.472824,137.126709 169.543839,137.126709 181.565155,137.126709 
	C184.748581,111.309486 197.907623,93.266174 222.079285,82.428459 
z"/>
<path fill="#0DC09D" opacity="1.000000" stroke="none" 
	d="
M69.204254,195.305191 
	C75.078644,189.806732 81.163826,184.980789 86.168701,179.216797 
	C95.480492,168.492630 98.136055,158.320007 99.321838,145.308548 
	C111.686111,145.308548 124.081116,145.308548 136.475510,145.308548 
	C137.236023,193.873856 92.169167,241.579102 41.271240,240.575653 
	C41.271240,228.515640 41.271240,216.449829 41.271240,205.753723 
	C50.930214,202.191620 59.928905,198.873016 69.204254,195.305191 
z"/>
<path fill="#0DC09D" opacity="1.000000" stroke="none" 
	d="
M239.999252,224.996872 
	C239.999252,230.462204 239.999252,235.428513 239.999252,240.373276 
	C192.929443,242.252670 144.099640,196.516602 144.911926,145.320969 
	C156.988739,145.320969 169.078140,145.320969 181.659531,145.320969 
	C183.991486,160.151703 188.699341,174.004730 199.962692,185.224518 
	C211.043625,196.262558 224.224472,202.027466 239.999252,204.452759 
	C239.999252,210.952179 239.999252,217.725006 239.999252,224.996872 
z"/>
<path fill="#0DC09D" opacity="1.000000" stroke="none" 
	d="
M52.173065,80.946976 
	C48.435104,80.069946 45.118591,79.232407 41.346779,78.279884 
	C41.346779,66.751938 41.346779,54.686481 41.346779,42.619667 
	C87.567612,39.849781 136.095993,85.019264 136.626114,137.120483 
	C124.379066,137.120483 112.128769,137.120483 99.999229,137.120483 
	C98.006668,130.334518 96.514069,123.279732 93.878784,116.681313 
	C88.156128,102.352516 77.870117,91.949036 64.142349,85.068367 
	C60.520893,83.253212 56.455860,82.323029 52.173065,80.946976 
z"/>
<path fill="#0DC09D" opacity="1.000000" stroke="none" 
	d="
M221.765594,82.666809 
	C197.907623,93.266174 184.748581,111.309486 181.565155,137.126709 
	C169.543839,137.126709 157.472824,137.126709 145.403244,137.126709 
	C141.627350,96.574486 183.790924,41.551395 239.606689,42.176056 
	C239.606689,54.219707 239.606689,66.277817 239.606689,78.324760 
	C233.809097,79.682152 227.944199,81.055305 221.765594,82.666809 
z"/>
</svg>