<?xml version="1.0" standalone="no"?>
<!DOCTYPE svg PUBLIC "-//W3C//DTD SVG 20010904//EN"
 "http://www.w3.org/TR/2001/REC-SVG-20010904/DTD/svg10.dtd">
<svg version="1.0" xmlns="http://www.w3.org/2000/svg"
 width="230.000000pt" height="186.000000pt" viewBox="0 0 230.000000 186.000000"
 preserveAspectRatio="xMidYMid meet">

<g transform="translate(0.000000,186.000000) scale(0.100000,-0.100000)"
fill="#000000" stroke="none">
<path d="M0 266 l0 -266 55 0 54 0 3 102 3 103 115 5 c127 6 157 17 188 74 23
45 21 139 -5 174 -43 58 -73 67 -250 71 l-163 3 0 -266z m316 139 c19 -30 11
-81 -16 -95 -10 -6 -57 -10 -104 -10 l-86 0 0 65 0 65 95 0 c89 0 95 -1 111
-25z"/>
<path d="M520 265 l0 -265 50 0 50 0 0 185 c0 102 4 185 8 185 4 0 73 -83 152
-185 l144 -185 48 0 48 0 0 265 0 265 -55 0 -55 0 -2 -177 -3 -176 -103 134
c-56 74 -117 153 -135 176 -31 41 -34 42 -89 43 l-58 0 0 -265z"/>
<path d="M1140 265 l0 -265 50 0 50 0 0 187 c0 177 1 185 18 170 9 -9 76 -92
147 -186 l130 -170 48 0 47 -1 0 265 0 265 -50 0 -50 0 0 -175 c0 -96 -3 -175
-7 -174 -5 0 -68 79 -142 175 l-134 174 -53 0 -54 0 0 -265z"/>
<path d="M1750 265 l0 -265 210 0 210 0 0 50 0 50 -155 0 -155 0 0 215 0 215
-55 0 -55 0 0 -265z"/>
</g>
</svg>
